# xmcd
#
# Track frame offsets:
#	182
#	6252
#	28332
#	50327
#	78877
#	96767
#	112740
#	136055
#	156662
#	179450
#	197637
#	222682
#	244242
#
# Disc length: 3546 seconds
# Revision: 0
# Processed by: cddbd v1.5.2PL0 Copyright (c) Steve Scherf et al.
# Submitted via: dBpowerAMP V12.0
#
DISCID=b20dd80d
DTITLE=Eagles - Selected Works: 1972-1999, Disc 2
DYEAR=2000
DGENRE=Country Rock
TTITLE0=Wasted Time Reprise
TTITLE1=Wasted Time
TTITLE2=I Can't Tell You Why
TTITLE3=Lyin' Eyes
TTITLE4=Pretty Maids All in a Row
TTITLE5=Desperado
TTITLE6=Try and Love Again
TTITLE7=The Best of My Love
TTITLE8=New Kid in Town
TTITLE9=Love Will Keep Us Alive
TTITLE10=Sad Café
TTITLE11=Take It to the Limit
TTITLE12=After the Thrill Is Gone
EXTD=
EXTT0=
EXTT1=
EXTT2=
EXTT3=
EXTT4=
EXTT5=
EXTT6=
EXTT7=
EXTT8=
EXTT9=
EXTT10=
EXTT11=
EXTT12=
PLAYORDER=
